<?xml version="1.0" encoding="utf-8"?>
<!-- Generator: Adobe Illustrator 16.0.0, SVG Export Plug-In . SVG Version: 6.00 Build 0)  -->
<!DOCTYPE svg PUBLIC "-//W3C//DTD SVG 1.1//EN" "http://www.w3.org/Graphics/SVG/1.1/DTD/svg11.dtd">
<svg version="1.1" id="Layer_1" xmlns="http://www.w3.org/2000/svg" xmlns:xlink="http://www.w3.org/1999/xlink" x="0px" y="0px"
	 width="1000px" height="1000px" viewBox="0 0 1000 1000" enable-background="new 0 0 1000 1000" xml:space="preserve">
<g>
	<g>
		<path fill-rule="evenodd" clip-rule="evenodd" fill="#FFFFFF" d="M571.801,571.801c-47.521,0-95.041,0-142.561,0
			c0-47.521,0-95.041,0-142.561c47.52,0,95.04,0,142.561,0C571.801,476.76,571.801,524.28,571.801,571.801z M500.611,430.215
			c-1.584,0.065-3.171-0.107-4.757,0.184c-0.963,0.176-1.964,0.119-2.951,0.227c-1.683,0.183-3.339,0.482-5.005,0.749
			c-2.592,0.414-5.139,1.03-7.64,1.784c-3.446,1.04-6.793,2.37-10.037,3.939c-3.91,1.892-7.603,4.14-11.102,6.72
			c-2.333,1.72-4.577,3.544-6.658,5.555c-1.461,1.411-2.871,2.884-4.204,4.417c-1.585,1.822-3.18,3.655-4.563,5.629
			c-2.622,3.737-4.979,7.636-6.809,11.846c-1.14,2.622-2.21,5.264-3.067,7.988c-0.691,2.196-1.271,4.426-1.698,6.691
			c-0.254,1.346-0.502,2.693-0.71,4.046c-0.131,0.856-0.086,1.749-0.292,2.583c-0.344,1.399-0.307,2.833-0.366,4.232
			c-0.113,2.616-0.186,5.243,0.112,7.874c0.186,1.642,0.22,3.302,0.515,4.938c0.278,1.543,0.425,3.112,0.762,4.64
			c0.462,2.094,1,4.173,1.594,6.232c0.845,2.936,2.011,5.753,3.239,8.55c1.221,2.781,2.71,5.412,4.293,7.991
			c0.968,1.576,2.024,3.104,3.125,4.593c1.581,2.136,3.259,4.204,5.104,6.115c1.521,1.576,3.106,3.101,4.753,4.545
			c1.815,1.594,3.647,3.192,5.625,4.57c3.744,2.61,7.63,4.995,11.843,6.814c2.659,1.148,5.332,2.245,8.101,3.098
			c2.165,0.667,4.354,1.236,6.575,1.679c1.227,0.243,2.451,0.506,3.687,0.694c0.975,0.147,1.991,0.082,2.941,0.311
			c1.402,0.339,2.851,0,4.23,0.416c2.624-0.069,5.246,0.13,7.876-0.165c1.642-0.184,3.295-0.281,4.94-0.496
			c1.558-0.203,3.105-0.448,4.64-0.771c2.137-0.448,4.252-0.987,6.345-1.624c2.889-0.878,5.67-2.014,8.439-3.203
			c2.573-1.106,4.997-2.49,7.397-3.904c1.763-1.039,3.393-2.305,5.075-3.479c2.248-1.566,4.326-3.346,6.319-5.216
			c2.18-2.045,4.263-4.189,6.112-6.547c1.001-1.275,2.061-2.512,2.982-3.843c2.602-3.755,4.979-7.637,6.791-11.855
			c1.281-2.986,2.439-5.998,3.377-9.115c1.075-3.572,1.744-7.215,2.303-10.883c0.267-1.752,0.426-3.53,0.475-5.302
			c0.093-3.385,0.095-6.772-0.221-10.15c-0.007-0.079,0.003-0.161-0.01-0.239c-0.145-0.888-0.306-1.773-0.436-2.663
			c-0.187-1.283-0.264-2.589-0.543-3.852c-0.507-2.284-1.043-4.567-1.722-6.804c-1.058-3.483-2.414-6.86-3.987-10.146
			c-1.91-3.991-4.23-7.739-6.86-11.287c-1.676-2.262-3.486-4.426-5.446-6.457c-2.629-2.723-5.441-5.233-8.458-7.523
			c-3.083-2.342-6.352-4.387-9.761-6.206c-1.35-0.72-2.751-1.348-4.154-1.958c-1.542-0.669-3.1-1.307-4.676-1.891
			c-2.858-1.06-5.78-1.898-8.779-2.48c-1.69-0.328-3.364-0.74-5.085-0.897c-0.744-0.068-1.501-0.099-2.227-0.262
			c-1.476-0.333-2.984-0.212-4.471-0.406C502.543,430.115,501.57,430.215,500.611,430.215z"/>
		<path fill-rule="evenodd" clip-rule="evenodd" d="M500.611,430.215c0.959,0,1.932-0.1,2.876,0.023
			c1.486,0.193,2.995,0.073,4.471,0.406c0.726,0.164,1.482,0.194,2.227,0.262c1.721,0.157,3.395,0.569,5.085,0.897
			c2.999,0.582,5.921,1.42,8.779,2.48c1.576,0.584,3.134,1.222,4.676,1.891c1.403,0.61,2.805,1.238,4.154,1.958
			c3.409,1.819,6.678,3.864,9.761,6.206c3.017,2.291,5.829,4.801,8.458,7.523c1.96,2.031,3.771,4.194,5.446,6.457
			c2.63,3.548,4.95,7.296,6.86,11.287c1.573,3.287,2.93,6.663,3.987,10.146c0.679,2.237,1.215,4.521,1.722,6.804
			c0.279,1.262,0.356,2.568,0.543,3.852c0.13,0.89,0.291,1.775,0.436,2.663c0.013,0.078,0.003,0.16,0.01,0.239
			c0.315,3.378,0.313,6.766,0.221,10.15c-0.049,1.771-0.208,3.55-0.475,5.302c-0.559,3.668-1.228,7.311-2.303,10.883
			c-0.938,3.117-2.096,6.129-3.377,9.115c-1.813,4.219-4.189,8.101-6.791,11.855c-0.922,1.331-1.981,2.567-2.982,3.843
			c-1.85,2.357-3.933,4.502-6.112,6.547c-1.993,1.87-4.071,3.649-6.319,5.216c-1.683,1.174-3.313,2.439-5.075,3.479
			c-2.4,1.414-4.824,2.798-7.397,3.904c-2.77,1.189-5.551,2.325-8.439,3.203c-2.093,0.637-4.208,1.176-6.345,1.624
			c-1.534,0.322-3.082,0.567-4.64,0.771c-1.646,0.215-3.299,0.313-4.94,0.496c-2.63,0.295-5.252,0.096-7.876,0.165
			c-1.38-0.416-2.829-0.077-4.23-0.416c-0.95-0.229-1.967-0.163-2.941-0.311c-1.235-0.188-2.46-0.451-3.687-0.694
			c-2.222-0.442-4.411-1.012-6.575-1.679c-2.769-0.853-5.441-1.949-8.101-3.098c-4.213-1.819-8.1-4.204-11.843-6.814
			c-1.977-1.378-3.809-2.977-5.625-4.57c-1.646-1.444-3.231-2.969-4.753-4.545c-1.846-1.911-3.524-3.979-5.104-6.115
			c-1.101-1.488-2.157-3.017-3.125-4.593c-1.583-2.579-3.072-5.21-4.293-7.991c-1.228-2.797-2.394-5.614-3.239-8.55
			c-0.593-2.06-1.132-4.139-1.594-6.232c-0.337-1.527-0.483-3.097-0.762-4.64c-0.295-1.636-0.33-3.296-0.515-4.938
			c-0.298-2.631-0.225-5.258-0.112-7.874c0.06-1.399,0.022-2.833,0.366-4.232c0.206-0.834,0.161-1.726,0.292-2.583
			c0.208-1.354,0.456-2.701,0.71-4.046c0.428-2.265,1.007-4.495,1.698-6.691c0.857-2.724,1.928-5.366,3.067-7.988
			c1.83-4.209,4.187-8.109,6.809-11.846c1.384-1.974,2.978-3.807,4.563-5.629c1.333-1.532,2.743-3.006,4.204-4.417
			c2.082-2.01,4.325-3.834,6.658-5.555c3.499-2.58,7.191-4.828,11.102-6.72c3.244-1.569,6.591-2.899,10.037-3.939
			c2.501-0.754,5.048-1.37,7.64-1.784c1.667-0.267,3.323-0.565,5.005-0.749c0.987-0.107,1.988-0.05,2.951-0.227
			C497.44,430.108,499.027,430.28,500.611,430.215z M477.492,492.179c7.82,0,15.522,0,23.299,0c0,11.121,0,22.183,0,33.273
			c1.108,0,2.142,0,3.306,0c7.62-10.478,15.29-21.023,23.062-31.708c0,10.652,0,21.154,0,31.696c1.149,0,2.215,0,3.363,0
			c2.55-3.527,5.11-7.08,7.683-10.625c2.573-3.547,5.153-7.088,7.739-10.626c2.581-3.532,5.178-7.052,7.572-10.43
			c0-1.25,0-2.242,0-3.4c-2.001,2.817-3.9,5.507-5.817,8.184c-1.909,2.663-3.846,5.307-5.754,7.97
			c-1.93,2.693-3.829,5.409-5.76,8.102c-1.908,2.66-3.84,5.305-5.891,8.136c0-9.921,0-19.595,0-29.165
			c-1.046-1.075-2.021-2.078-2.999-3.079c-0.023-0.023-0.07-0.027-0.107-0.031c-0.039-0.004-0.08,0.002-0.146,0.005
			c-7.665,10.698-15.34,21.408-23.126,32.273c0-9.884,0-19.587,0-29.065c-1.162-1.163-2.177-2.176-3.297-3.295
			c-7.597,0-15.343,0-23.129,0c0-10.697,0-21.329,0-31.958c-1.013-1.011-2.004-2-3.164-3.158c0,11.88,0,23.501,0,35.19
			c-8.99,0-17.896,0-26.752,0c0.508,0.565,1.007,1.121,1.52,1.692c8.403,0,16.794,0,25.151,0c0.057,0.072,0.102,0.102,0.102,0.132
			c0.007,10.919,0.011,21.838,0.015,32.757c0,0.08,0.002,0.161,0.013,0.239c0.005,0.034,0.032,0.067,0.055,0.098
			c0.023,0.032,0.053,0.06,0.086,0.097c0.479,0,0.959,0.013,1.438-0.004c0.504-0.018,1.021,0.085,1.54-0.088
			C477.492,514.306,477.492,503.272,477.492,492.179z M527.298,543.05c-17.257,0-34.48,0-51.604,0
			c0.477,0.532,0.978,1.091,1.461,1.631c1.199,0,2.358,0,3.518,0c1.12,0,2.239,0,3.359,0c1.16,0,2.319,0,3.479,0s2.319,0,3.479,0
			s2.319,0,3.479,0c1.12,0,2.239,0,3.359,0c1.16,0,2.319,0,3.479,0c1.159,0,2.319,0,3.479,0c1.16,0,2.319,0,3.479,0
			c1.12,0,2.239,0,3.359,0c1.16,0,2.319,0,3.479,0c1.16,0,2.319,0,3.479,0c1.159,0,2.319,0,3.479,0c1.12,0,2.239,0.014,3.358-0.004
			c1.124-0.018,2.255,0.08,3.384-0.066C528.285,544.074,527.815,543.587,527.298,543.05z"/>
		<path fill-rule="evenodd" clip-rule="evenodd" fill="#FFFFFF" d="M477.492,492.179c0,11.093,0,22.126,0,33.209
			c-0.519,0.173-1.036,0.07-1.54,0.088c-0.479,0.017-0.96,0.004-1.438,0.004c-0.033-0.037-0.063-0.064-0.086-0.097
			c-0.022-0.03-0.05-0.063-0.055-0.098c-0.011-0.078-0.012-0.159-0.013-0.239c-0.004-10.919-0.008-21.838-0.015-32.757
			c0-0.03-0.045-0.061-0.102-0.132c-8.357,0-16.748,0-25.151,0c-0.513-0.571-1.012-1.126-1.52-1.692c8.856,0,17.762,0,26.752,0
			c0-11.688,0-23.31,0-35.19c1.16,1.158,2.151,2.147,3.164,3.158c0,10.629,0,21.262,0,31.958c7.787,0,15.532,0,23.129,0
			c1.12,1.119,2.135,2.133,3.297,3.295c0,9.479,0,19.182,0,29.065c7.786-10.865,15.461-21.575,23.126-32.273
			c0.066-0.003,0.107-0.009,0.146-0.005c0.037,0.004,0.084,0.008,0.107,0.031c0.978,1.001,1.953,2.003,2.999,3.079
			c0,9.57,0,19.244,0,29.165c2.051-2.831,3.982-5.476,5.891-8.136c1.931-2.692,3.83-5.408,5.76-8.102
			c1.908-2.663,3.845-5.307,5.754-7.97c1.917-2.676,3.816-5.366,5.817-8.184c0,1.159,0,2.151,0,3.4
			c-2.395,3.377-4.991,6.897-7.572,10.43c-2.586,3.538-5.166,7.079-7.739,10.626c-2.572,3.545-5.133,7.098-7.683,10.625
			c-1.148,0-2.214,0-3.363,0c0-10.542,0-21.044,0-31.696c-7.771,10.685-15.441,21.23-23.062,31.708c-1.164,0-2.197,0-3.306,0
			c0-11.09,0-22.152,0-33.273C493.014,492.179,485.312,492.179,477.492,492.179z"/>
		<path fill-rule="evenodd" clip-rule="evenodd" fill="#FFFFFF" d="M527.298,543.05c0.518,0.537,0.987,1.024,1.504,1.561
			c-1.129,0.146-2.26,0.049-3.384,0.066c-1.119,0.018-2.238,0.004-3.358,0.004c-1.159,0-2.319,0-3.479,0c-1.16,0-2.319,0-3.479,0
			c-1.159,0-2.318,0-3.479,0c-1.12,0-2.239,0-3.359,0c-1.159,0-2.318,0-3.479,0c-1.159,0-2.319,0-3.479,0c-1.16,0-2.319,0-3.479,0
			c-1.12,0-2.239,0-3.359,0c-1.16,0-2.319,0-3.479,0s-2.319,0-3.479,0s-2.319,0-3.479,0c-1.12,0-2.239,0-3.359,0
			c-1.16,0-2.319,0-3.518,0c-0.483-0.54-0.984-1.099-1.461-1.631C492.818,543.05,510.041,543.05,527.298,543.05z"/>
	</g>
</g>
</svg>
