<?xml version="1.0" encoding="utf-8"?>
<!-- Generator: Adobe Illustrator 16.0.0, SVG Export Plug-In . SVG Version: 6.00 Build 0)  -->
<!DOCTYPE svg PUBLIC "-//W3C//DTD SVG 1.1//EN" "http://www.w3.org/Graphics/SVG/1.1/DTD/svg11.dtd">
<svg version="1.1" xmlns="http://www.w3.org/2000/svg" xmlns:xlink="http://www.w3.org/1999/xlink" x="0px" y="0px" width="492px"
	 height="492px" viewBox="0 0 492 492" enable-background="new 0 0 492 492" xml:space="preserve">
<g id="Layer_4" display="none">
	<circle display="inline" fill="#ED1F24" cx="196" cy="272" r="246"/>
	<g display="inline">
		<path d="M97.634,176.287v62.287H49.898H2.162l1.021,1.276l1.021,1.276h46.715h46.715v60.84v60.841h4.68h4.68v-60.841v-60.84h42.12
			h42.12v60.84v60.841h4.68h4.68l3.813-5.361c3.393-4.772,11.35-16.167,58.057-83.134c7.656-10.977,15.848-22.683,18.16-25.952
			l4.211-5.957v60.202v60.202h4.553h4.553l1.275-1.489c0.703-0.819,6.039-8.382,11.859-16.806
			c15.225-22.039,44.066-63.498,58.721-84.41l12.641-18.04v-1.957v-1.957l-4.211,5.956c-4.764,6.742-26.225,37.525-43.898,62.967
			c-6.545,9.422-17.23,24.805-23.793,34.249l-11.914,17.146l-0.211-55.522l-0.213-55.521l-4.766-4.638l-4.766-4.637l-0.34,0.894
			c-0.188,0.492-3.307,5.063-6.939,10.167c-6.311,8.873-17.537,24.933-46.99,67.223c-7.17,10.296-15.604,22.357-18.738,26.804
			c-3.121,4.425-6.818,9.798-8.168,11.87l-2.469,3.786l-0.213-55.691l-0.213-55.692l-4.424-4.467l-4.425-4.467H149.37h-42.375
			v-57.691V123.19l-4.68-4.595L97.634,114V176.287L97.634,176.287z"/>
		<polygon points="102.74,429.603 103.761,430.879 197.021,430.879 290.281,430.879 288.621,429.646 286.961,428.411 
			194.34,428.369 101.719,428.326 102.74,429.603 		"/>
	</g>
</g>
<g id="Layer_5" display="none">
</g>
<g id="Layer_2">
</g>
<g id="Layer_1">
	<path d="M246,0C110.138,0,0,110.138,0,246s110.138,246,246,246s246-110.138,246-246S381.862,0,246,0z M247.021,404.879h-93.261
		l-1.021-1.276l-1.021-1.276l92.621,0.043l92.621,0.042l1.66,1.234l1.66,1.233H247.021z M428.436,216.062l-12.641,18.04
		c-14.654,20.912-43.496,62.371-58.721,84.41c-5.82,8.424-11.156,15.986-11.859,16.806l-1.275,1.489h-4.553h-4.553v-60.202v-60.202
		l-4.211,5.957c-2.313,3.27-10.504,14.976-18.16,25.953c-46.707,66.967-54.664,78.361-58.057,83.134l-3.813,5.361h-4.68h-4.68
		v-60.841v-60.84h-42.12h-42.12v60.84v60.841h-4.68h-4.68v-60.841v-60.84h-46.715H54.205l-1.021-1.276l-1.021-1.276h47.736h47.736
		v-62.287V88l4.68,4.595l4.68,4.595v57.692v57.691h42.375h42.375l4.425,4.467l4.424,4.467l0.213,55.692l0.213,55.691l2.469-3.786
		c1.35-2.072,5.047-7.445,8.168-11.87c3.135-4.446,11.568-16.508,18.738-26.804c29.453-42.29,40.68-58.35,46.99-67.222
		c3.633-5.105,6.752-9.676,6.939-10.168l0.34-0.894l4.766,4.637l4.766,4.638l0.213,55.521l0.211,55.522l11.914-17.146
		c6.563-9.444,17.248-24.827,23.793-34.249c17.674-25.442,39.135-56.226,43.898-62.967l4.211-5.956v1.957V216.062z"/>
</g>
</svg>
