<?xml version="1.0" encoding="utf-8"?>
<!-- Generator: Adobe Illustrator 16.0.0, SVG Export Plug-In . SVG Version: 6.00 Build 0)  -->
<!DOCTYPE svg PUBLIC "-//W3C//DTD SVG 1.1//EN" "http://www.w3.org/Graphics/SVG/1.1/DTD/svg11.dtd">
<svg version="1.1" id="logo-thicker_xA0_Image_1_" xmlns="http://www.w3.org/2000/svg" xmlns:xlink="http://www.w3.org/1999/xlink"
	 x="0px" y="0px" width="550px" height="496px" viewBox="0 0 550 496" enable-background="new 0 0 550 496" xml:space="preserve">
<g>
	<g>
		<path fill-rule="evenodd" clip-rule="evenodd" fill="#FFFFFF" d="M1,497C1,331.667,1,166.333,1,1c183.333,0,366.666,0,550,0
			c0,165.333,0,330.667,0,496C367.666,497,184.333,497,1,497z M270.166,221.094c0,46.524,0,92.632,0,138.814
			c4.617,0,9.068,0,13.639,0c1.732-2.298,3.492-4.572,5.189-6.894c4.02-5.495,8.033-10.995,12.003-16.525
			c3.037-4.229,5.952-8.547,9.018-12.755c3.181-4.368,6.499-8.637,9.719-12.979c3.114-4.199,6.217-8.409,9.257-12.663
			c3.67-5.134,6.986-10.548,10.971-15.42c4.551-5.563,8.598-11.51,12.799-17.289c3.678-5.058,7.468-10.111,10.928-15.378
			c4.939-7.518,10.68-14.509,16.313-22.038c0,43.998,0,87.635,0.007,131.271c0,0.144,0.081,0.304,0.168,0.426
			c0.093,0.131,0.235,0.226,0.345,0.326c4.342,0,8.671,0,12.99,0c0.717-0.718,1.526-1.35,2.113-2.145
			c2.633-3.563,5.236-7.147,7.785-10.77c2.9-4.12,5.655-8.344,8.612-12.422c3.175-4.378,6.72-8.502,9.72-12.992
			c2.982-4.463,6.369-8.617,9.337-13.096c3.681-5.554,7.976-10.698,11.915-16.085c3.073-4.202,5.957-8.542,9.022-12.75
			c3.182-4.369,6.501-8.637,9.721-12.978c3.114-4.2,6.215-8.411,9.255-12.664c3.67-5.134,7.227-10.349,10.914-15.47
			c2.682-3.726,5.496-7.356,7.91-10.572c0-5.027,0-9.479,0-14.191c-0.777,1.107-1.361,1.947-1.954,2.782
			c-2.286,3.22-4.554,6.451-6.864,9.653c-3.707,5.136-7.459,10.237-11.157,15.378c-3.968,5.516-7.904,11.053-11.835,16.594
			c-2.556,3.602-4.836,7.431-7.667,10.797c-4.418,5.254-8.121,11.031-12.142,16.547c-3.686,5.058-7.185,10.332-10.864,15.415
			c-6.03,8.328-11.978,16.714-17.953,25.081c-3.593,5.028-7.297,9.978-10.944,14.967c-0.84,1.147-1.65,2.315-2.477,3.473
			c-0.807,1.127-1.615,2.252-2.998,4.18c0-41.54,0-81.986,0-121.03c-4.987-4.988-9.189-9.189-13.394-13.395
			c-2.47,3.291-5.396,6.797-7.87,10.596c-2.689,4.129-5.725,7.973-8.658,11.911c-2.716,3.649-4.84,7.761-7.721,11.261
			c-4.358,5.297-8.205,10.987-12.119,16.557c-4.234,6.025-8.486,12.094-12.698,18.144c-5.335,7.664-10.896,15.202-16.454,22.726
			c-5.165,6.993-10.158,14.113-15.219,21.186c-3.309,4.625-6.593,9.268-9.901,13.894c-1.776,2.484-3.581,4.949-5.822,8.044
			c0-41.288,0-81.735,0-122.012c-4.294-4.294-8.418-8.418-12.713-12.713c-32.276,0-64.724,0-97.34,0c0-44.616,0-89.063,0-131.961
			c-4.988-4.988-9.119-9.118-13.05-13.05c0,47.77,0,96.073-0.007,144.377c0,0.142-0.09,0.301-0.18,0.42
			c-0.095,0.128-0.239,0.218-0.578,0.512c-36.893,0-74.002,0-111.047,0c2.249,2.25,4.437,4.438,7.026,7.028
			c34.516,0,69.618,0,104.886,0c0,46.329,0,92.441,0,138.547c4.41,0,8.646,0,13.042,0c0-46.35,0-92.463,0-138.669
			C205.426,221.094,237.54,221.094,270.166,221.094z M171.507,440c71.675,0,143.323,0,214.972-0.014c0.12,0,0.262-0.196,0.354-0.329
			c0.084-0.123,0.114-0.284,0.348-0.91c-1.697-1.869-3.743-3.754-5.67-5.747c-71.984,0-143.965,0-215.945,0.013
			c-0.124,0-0.274,0.175-0.363,0.302c-0.059,0.084-0.03,0.229-0.033,0.265C167.311,435.749,169.416,437.881,171.507,440z"/>
		<path fill-rule="evenodd" clip-rule="evenodd" d="M270.166,221.094c-32.626,0-64.74,0-97.023,0c0,46.206,0,92.319,0,138.669
			c-4.396,0-8.633,0-13.042,0c0-46.105,0-92.218,0-138.547c-35.269,0-70.37,0-104.886,0c-2.589-2.59-4.777-4.778-7.026-7.028
			c37.044,0,74.154,0,111.047,0c0.338-0.294,0.482-0.384,0.578-0.512c0.089-0.119,0.18-0.278,0.18-0.42
			C160,164.952,160,116.648,160,68.879c3.931,3.932,8.062,8.062,13.05,13.05c0,42.898,0,87.345,0,131.961c32.616,0,65.063,0,97.34,0
			c4.295,4.295,8.419,8.419,12.713,12.713c0,40.276,0,80.724,0,122.012c2.241-3.095,4.046-5.56,5.822-8.044
			c3.309-4.626,6.593-9.269,9.901-13.894c5.061-7.072,10.054-14.192,15.219-21.186c5.559-7.523,11.119-15.062,16.454-22.726
			c4.212-6.05,8.464-12.118,12.698-18.144c3.914-5.569,7.761-11.26,12.119-16.557c2.881-3.5,5.005-7.611,7.721-11.261
			c2.934-3.938,5.969-7.782,8.658-11.911c2.475-3.799,5.4-7.305,7.87-10.596c4.204,4.205,8.406,8.406,13.394,13.395
			c0,39.044,0,79.49,0,121.03c1.383-1.928,2.191-3.053,2.998-4.18c0.826-1.157,1.637-2.325,2.477-3.473
			c3.647-4.989,7.352-9.938,10.944-14.967c5.976-8.367,11.923-16.753,17.953-25.081c3.68-5.083,7.179-10.357,10.864-15.415
			c4.021-5.516,7.724-11.293,12.142-16.547c2.831-3.366,5.111-7.195,7.667-10.797c3.931-5.541,7.867-11.078,11.835-16.594
			c3.698-5.141,7.45-10.242,11.157-15.378c2.311-3.202,4.578-6.434,6.864-9.653c0.593-0.835,1.177-1.675,1.954-2.782
			c0,4.713,0,9.164,0,14.191c-2.414,3.216-5.229,6.847-7.91,10.572c-3.688,5.121-7.244,10.336-10.914,15.47
			c-3.04,4.253-6.141,8.464-9.255,12.664c-3.22,4.341-6.539,8.608-9.721,12.978c-3.065,4.208-5.949,8.548-9.022,12.75
			c-3.939,5.387-8.234,10.531-11.915,16.085c-2.968,4.479-6.354,8.633-9.337,13.096c-3,4.49-6.545,8.614-9.72,12.992
			c-2.957,4.078-5.712,8.302-8.612,12.422c-2.549,3.622-5.152,7.207-7.785,10.77c-0.587,0.795-1.396,1.427-2.113,2.145
			c-4.319,0-8.648,0-12.99,0c-0.109-0.101-0.252-0.195-0.345-0.326c-0.087-0.122-0.168-0.282-0.168-0.426
			C380,315.603,380,271.966,380,227.968c-5.633,7.529-11.373,14.521-16.313,22.038c-3.46,5.267-7.25,10.32-10.928,15.378
			c-4.201,5.779-8.248,11.726-12.799,17.289c-3.984,4.872-7.301,10.286-10.971,15.42c-3.04,4.254-6.143,8.464-9.257,12.663
			c-3.22,4.342-6.538,8.61-9.719,12.979c-3.065,4.208-5.98,8.525-9.018,12.755c-3.97,5.53-7.983,11.03-12.003,16.525
			c-1.697,2.321-3.457,4.596-5.189,6.894c-4.57,0-9.021,0-13.639,0C270.166,313.726,270.166,267.618,270.166,221.094z"/>
		<path fill-rule="evenodd" clip-rule="evenodd" d="M171.507,440c-2.091-2.119-4.196-4.251-6.338-6.421
			c0.003-0.035-0.026-0.181,0.033-0.265c0.089-0.127,0.239-0.302,0.363-0.302C237.545,433,309.525,433,381.51,433
			c1.927,1.993,3.973,3.878,5.67,5.747c-0.233,0.626-0.264,0.787-0.348,0.91c-0.092,0.133-0.233,0.329-0.354,0.329
			C314.83,440,243.182,440,171.507,440z"/>
	</g>
</g>
</svg>
